<svg width="192" height="192" viewBox="0 0 192 192" fill="none" xmlns="http://www.w3.org/2000/svg">
<rect width="192" height="192" fill="#1F1D2B"/>
<path fill-rule="evenodd" clip-rule="evenodd" d="M95.8125 68.4844C80.7199 68.4844 68.4844 80.7199 68.4844 95.8125C68.4844 110.905 80.7199 123.141 95.8125 123.141C110.905 123.141 123.141 110.905 123.141 95.8125C123.141 80.7199 110.905 68.4844 95.8125 68.4844ZM107.658 91.1916C107.876 90.9422 108.042 90.6518 108.146 90.3374C108.251 90.0229 108.291 89.6908 108.265 89.3605C108.239 89.0303 108.147 88.7086 107.995 88.4143C107.843 88.1201 107.633 87.8593 107.379 87.6472C107.124 87.4351 106.83 87.2761 106.513 87.1795C106.196 87.0828 105.863 87.0505 105.534 87.0845C105.204 87.1184 104.885 87.2179 104.594 87.3771C104.304 87.5364 104.048 87.7521 103.842 88.0116L93.1592 100.828L87.6315 95.2982C87.1629 94.8457 86.5353 94.5953 85.8839 94.6009C85.2325 94.6066 84.6094 94.8679 84.1488 95.3285C83.6882 95.7891 83.4269 96.4122 83.4212 97.0636C83.4156 97.715 83.666 98.3426 84.1185 98.8111L91.5717 106.264C91.8158 106.508 92.108 106.699 92.4298 106.823C92.7516 106.948 93.0958 107.004 93.4406 106.989C93.7853 106.973 94.1231 106.886 94.4322 106.732C94.7414 106.579 95.0151 106.363 95.2361 106.098L107.658 91.1916Z" fill="#6F6FC8"/>
</svg>
